<?xml version="1.0" encoding="UTF-8"?><svg id="Layer_1" xmlns="http://www.w3.org/2000/svg" viewBox="0 0 1920 1080"><defs><style>.cls-1{fill:#551500;}.cls-2{fill:#fd4a04;}</style></defs><path class="cls-2" d="M1920,56.24v318.08c0,13.17-12.55,22.66-25.25,19.18-41.02-11.26-84.22-17.27-128.81-17.27-261,0-473.92,205.91-485.14,464.15-.27,6.24-3.43,12.01-8.57,15.55-.1.07-.2.14-.31.21-10.6,7.32-25.23,2.79-29.88-9.22-42.83-110.48-150.14-188.81-275.75-188.81-117.94,0-219.74,69.05-267.2,168.92-5.08,10.69-18.33,14.41-28.39,8.18-27.61-17.11-60.17-26.98-95.05-26.98-99.84,0-180.77,80.94-180.77,180.77,0,22.51,4.12,44.07,11.64,63.95,4.94,13.06-4.53,27.05-18.5,27.05H56.24c-31.06,0-56.24-25.18-56.24-56.24V56.24C0,25.18,25.18,0,56.24,0h1807.52c31.06,0,56.24,25.18,56.24,56.24Z"/><path class="cls-1" d="M775.65,244.78v204.48h38.91v53.38h-38.91v66.5h-65.14v-66.5h-141.37v-55.87c12.51-14.02,25.48-29.37,38.91-46.03,13.42-16.66,26.39-33.82,38.91-51.46,12.51-17.64,24.16-35.4,34.95-53.27,10.78-17.87,19.94-34.95,27.48-51.23h66.27ZM633.15,449.26h77.36v-113.32c-5.28,9.8-11.01,19.72-17.19,29.74-6.19,10.03-12.67,19.91-19.45,29.63s-13.65,19.15-20.58,28.27c-6.94,9.12-13.65,17.68-20.13,25.67Z"/><path class="cls-1" d="M958.42,574.8c-77.21,0-115.81-54.21-115.81-162.63,0-56.25,10.44-99.11,31.33-128.59,20.88-29.48,51.16-44.22,90.82-44.22,75.4,0,113.1,55.12,113.1,165.35,0,54.89-10.29,96.96-30.88,126.22-20.58,29.26-50.1,43.88-88.55,43.88ZM961.58,293.87c-30.92,0-46.37,38.83-46.37,116.49,0,73.14,15.16,109.7,45.46,109.7s44.33-37.7,44.33-113.1-14.48-113.1-43.43-113.1Z"/><path class="cls-1" d="M1308.57,244.78v204.48h38.91v53.38h-38.91v66.5h-65.14v-66.5h-141.37v-55.87c12.51-14.02,25.48-29.37,38.91-46.03,13.42-16.66,26.39-33.82,38.91-51.46,12.51-17.64,24.16-35.4,34.95-53.27,10.78-17.87,19.94-34.95,27.48-51.23h66.27ZM1166.06,449.26h77.36v-113.32c-5.28,9.8-11.01,19.72-17.19,29.74-6.19,10.03-12.67,19.91-19.45,29.63s-13.65,19.15-20.58,28.27c-6.94,9.12-13.65,17.68-20.13,25.67Z"/><path class="cls-1" d="M426.87,619.64c-1.7,4.42-3.4,5.45-6.13,7.49-2.72,2.04-4.08,4.08-9.87,3.06-5.78-1.02-8.17-2.04-11.23-2.38-3.07-.34-8.85,1.7-13.62-.68-4.76-2.39-27.23-17.36-36.08-26.9-8.85-9.53-12.26-10.89-13.96-10.89s-9.53.34-11.92,2.04c-2.38,1.71-5.78,6.13-7.49,10.22-1.7,4.08-3.4,10.21-4.08,17.36-.68,7.15-4.43,15.66-5.11,19.74-.68,4.09-1.7,14.64-.34,19.41,1.36,4.76,8.85,18.38,11.24,27.23,2.38,8.85,7.49,20.43,8.51,28.94,1.02,8.51,2.04,25.19,2.38,26.89.34,1.7,8.85,3.06,13.28,9.53,4.42,6.47,7.15,14.64,8.17,19.07,1.02,4.42,1.7,12.57,4.08,19.05,2.39,6.48,4.43,18.39,4.43,24.18s-.68,13.28,0,20.77c.68,7.49,2.72,22.8,3.74,30.97s.34,26.9-4.08,38.13c-4.43,11.24-7.15,20.43-12.26,25.87-5.1,5.45-28.25,18.05-35.74,21.11-7.49,3.06-19.41,6.47-24.85,13.96-5.45,7.49-7.83,11.23-12.6,11.57,0,0-5.45,10.56-8.17,16.68-2.72,6.13-9.53,18.39-9.87,22.47-.34,4.09-9.19,24.17-8.85,30.3.34,6.13-3.75,8.51-3.07,12.6.68,4.08,1.36,12.93,1.36,16,0,1.81,0,4.21.63,6.57h-65.16c6.86-1.97,14.19-4.38,19.26-6.91,12.25-6.13,16.68-7.49,23.15-19.75,6.47-12.25,8.17-11.91,10.55-23.83,2.38-11.91,3.06-19.74,3.74-28.25.69-8.52.69-18.05,3.41-22.13,2.72-4.09,6.13-11.92,6.13-11.92,0,0-10.56,3.07-22.81.68-12.26-2.38-21.45.34-29.62-5.1-8.17-5.45-29.62-11.58-38.81-13.62s-11.91-5.45-22.81-8.17c-10.89-2.72-14.29-4.09-23.49-8.51-9.19-4.43-13.95-7.49-18.72-11.92-4.76-4.42-6.13-6.46-10.21-8.17-4.09-1.7-6.47-4.08-6.47-4.08,0,0,4.43,12.59,5.79,22.47,1.35,9.79,9.74,42.38,9.86,42.88-.29-.18-4.62-2.87-10.54,2.39-6.13,5.45-46.98,42.9-46.98,42.9,0,0-5.79-2.39-8.17-8.51-2.38-6.13-5.79-23.49-9.87-24.51-1.82-.46-7.32.77-13.6,3.03v-49.5c4.15-7.82,9-15.47,14.62-22.3,26.89-32.68,34.38-42.89,34.38-42.89,0,0-6.13-.34-8.51-4.77-2.38-4.42-5.11-18.72-6.13-20.08-1.02-1.37.34-8.86-2.72-10.56-3.07-1.7-4.43-11.57-3.41-15.66,1.03-4.08,3.07-12.25,3.07-12.25,0,0-17.36-21.13-19.75-22.14-2.38-1.01-3.74,3.41-3.74,3.41,0,0-2.72.34-4.77-9.19-2.04-9.53-2.72-14.3-1.7-15.66.25-.34-.33-1.18-1.34-2.35v-32.23c1.46-2.2,2.97-4.15,4.4-5.59,5.45-5.44,7.83-6.81,12.26-11.91,4.43-5.11,9.87-9.87,16-11.92,6.13-2.04,64.68-18.38,70.47-18.38s10.89-.68,18.72,0c7.83.68,12.26,1.44,19.75-.3,7.49-1.74,5.78-7.53,10.21-6.85,4.42.68,6.81,0,11.91-2.72,5.11-2.73,13.96-3.41,16.34-5.45,2.39-2.04,7.49-3.06,11.24-3.74,3.74-.68,10.21-4.77,15.32-3.75,5.1,1.02,18.04-1.7,24.17,2.04,0,0,2.04-13.95,2.38-23.83.34-9.87-.68-25.19,0-35.74s1.7-38.47,4.43-48.34c2.72-9.87,3.74-16.68,5.78-22.47,2.05-5.79,7.15-17.7,11.92-24.85,4.76-7.15,9.53-11.57,15.32-15.32,5.78-3.74,16.68-9.19,19.4-9.53,2.72-.34,8.17-4.09,10.89-5.11,2.73-1.02,7.15-2.04,11.24-2.04s19.06,2.38,22.13,4.09c3.06,1.7,13.95,7.14,16.34,10.21,2.38,3.06,5.1,6.13,6.12,6.47,1.03.34.35,5.1,3.41,8.51,3.06,3.4,6.13,13.61,7.83,14.98,1.7,1.36,4.08,6.8,5.11,9.53,1.02,2.72,3.06,10.21,3.06,14.3s1.7,8.85,1.7,10.55,2.72-1.02,4.09.68c1.36,1.7,4.76,9.19,3.74,16,0,0,33.7,38.47,36.43,40.85,2.72,2.38,6.46,2.04,4.76,6.47Z"/></svg>